<svg width="220" height="220" fill="none" xmlns="http://www.w3.org/2000/svg">
    <circle cx="110" cy="110" r="110" fill="#2C3040"/>
    <path d="M160.397 51.922H59.603a4.504 4.504 0 0 0-4.504 4.504V157.22a4.505 4.505 0 0 0 4.504 4.505h100.794a4.504 4.504 0 0 0 4.504-4.505V56.426a4.504 4.504 0 0 0-4.504-4.504zM65 163h22.857l-4.572 5.714H65V163zM156.426 163h-22.857l4.571 5.714h18.286V163z" fill="#1F232E"/>
    <path d="M153.417 61.125H65.979A1.98 1.98 0 0 0 64 63.105v87.437a1.98 1.98 0 0 0 1.98 1.98h87.437a1.98 1.98 0 0 0 1.98-1.98V63.104a1.98 1.98 0 0 0-1.98-1.979z" fill="#1F232E"/>
    <path d="M155.692 63.105v2.842H71.115a1.978 1.978 0 0 0-1.979 1.978v84.6h-2.853a1.985 1.985 0 0 1-1.399-.579 1.982 1.982 0 0 1-.58-1.399V63.105a1.979 1.979 0 0 1 1.979-1.978h87.431a1.98 1.98 0 0 1 1.978 1.978z" fill="#2C3040"/>
    <path d="M153.719 153.443H66.281a2.9 2.9 0 0 1-2.901-2.9V63.104a2.904 2.904 0 0 1 2.901-2.9h87.438a2.905 2.905 0 0 1 2.901 2.9v87.439a2.904 2.904 0 0 1-2.901 2.9zM66.281 62.047a1.058 1.058 0 0 0-1.057 1.057v87.439a1.06 1.06 0 0 0 1.057 1.057h87.438a1.062 1.062 0 0 0 1.057-1.057V63.104a1.054 1.054 0 0 0-1.057-1.057H66.281z" fill="#454C5E"/>
    <path d="M155.903 71.831h-2.413a2.67 2.67 0 0 0-2.671 2.67v13.96a2.67 2.67 0 0 0 2.671 2.67h2.413a2.67 2.67 0 0 0 2.671-2.67V74.5a2.67 2.67 0 0 0-2.671-2.67z" fill="#454C5E"/>
    <path d="M155.903 92.054h-2.412a3.595 3.595 0 0 1-3.595-3.595V74.502a3.6 3.6 0 0 1 3.595-3.595h2.412a3.597 3.597 0 0 1 3.596 3.596V88.46a3.598 3.598 0 0 1-3.596 3.593zm-2.412-19.297a1.749 1.749 0 0 0-1.618 1.08c-.088.213-.134.441-.134.671v13.953a1.752 1.752 0 0 0 1.752 1.751h2.412a1.753 1.753 0 0 0 1.752-1.751V74.502a1.754 1.754 0 0 0-1.752-1.751l-2.412.005z" fill="#2C3040"/>
    <path d="M150.819 78.198h7.755v5.503h-7.755v-5.503z" fill="#454C5E"/>
    <path d="M159.495 84.623h-9.599v-7.35h9.599v7.35zm-7.755-1.844h5.911v-3.662h-5.911v3.662z" fill="#2C3040"/>
    <path d="M155.903 121.153h-2.413a2.671 2.671 0 0 0-2.671 2.671v13.959a2.671 2.671 0 0 0 2.671 2.671h2.413a2.671 2.671 0 0 0 2.671-2.671v-13.959a2.671 2.671 0 0 0-2.671-2.671z" fill="#454C5E"/>
    <path d="M155.903 141.377h-2.412a3.59 3.59 0 0 1-2.542-1.053 3.606 3.606 0 0 1-1.053-2.543v-13.953a3.606 3.606 0 0 1 2.219-3.322 3.59 3.59 0 0 1 1.376-.274h2.412a3.599 3.599 0 0 1 3.596 3.596v13.955a3.6 3.6 0 0 1-3.596 3.594zm-2.412-19.301a1.761 1.761 0 0 0-1.239.513 1.768 1.768 0 0 0-.513 1.239v13.955a1.75 1.75 0 0 0 1.082 1.618c.212.088.44.134.67.134h2.412a1.755 1.755 0 0 0 1.752-1.752v-13.955a1.755 1.755 0 0 0-1.752-1.752h-2.412z" fill="#2C3040"/>
    <path d="M150.819 127.521h7.755v5.502h-7.755v-5.502z" fill="#454C5E"/>
    <path d="M159.495 133.945h-9.599v-7.346h9.599v7.346zm-7.755-1.844h5.911v-3.659h-5.911v3.659z" fill="#2C3040"/>
    <path d="M89.192 103.767c6.85 0 12.402-5.553 12.402-12.402 0-6.85-5.552-12.402-12.402-12.402S76.79 84.515 76.79 91.365s5.553 12.402 12.402 12.402z" fill="#1F232E"/>
    <path d="M89.192 104.689a13.325 13.325 0 1 1 13.324-13.324 13.339 13.339 0 0 1-13.324 13.324zm0-24.804a11.48 11.48 0 1 0 11.48 11.48 11.491 11.491 0 0 0-11.48-11.48z" fill="#2C3040"/>
    <path d="M122.389 87.892 89.294 86.71a4.66 4.66 0 1 0 0 9.31l33.095-1.183a3.477 3.477 0 0 0 2.376-5.886 3.477 3.477 0 0 0-2.376-1.06v.002z" fill="#454C5E"/>
    <path d="M89.126 96.947a5.582 5.582 0 1 1 .203-11.16l33.096 1.183a4.399 4.399 0 0 1 3.017 7.454 4.4 4.4 0 0 1-3.017 1.336l-33.096 1.184a7.126 7.126 0 0 1-.203.003zm0-9.32a3.737 3.737 0 0 0-1.32 7.237c.465.175.961.255 1.458.236l33.095-1.183a2.554 2.554 0 0 0 0-5.105L89.264 87.63l-.138-.002zM109.287 139.57a13.282 13.282 0 0 1-9.397-22.678 13.287 13.287 0 0 1 22.68 9.392 13.303 13.303 0 0 1-3.894 9.39 13.303 13.303 0 0 1-9.389 3.896zm0-24.727a11.436 11.436 0 0 0-10.572 7.062 11.44 11.44 0 0 0 8.337 15.601 11.446 11.446 0 0 0 11.746-4.865 11.446 11.446 0 0 0 1.929-6.357 11.456 11.456 0 0 0-11.44-11.441z" fill="#454C5E"/>
    <path d="M109.976 140.992a14.532 14.532 0 0 0 4.631-.926l-.53-1.404c.266-.1.528-.209.786-.326l.62 1.366a14.504 14.504 0 0 0 3.925-2.625l-1.025-1.095a12.141 12.141 0 0 0 .601-.601l1.095 1.025a14.498 14.498 0 0 0 2.624-3.926l-1.366-.619c.117-.259.226-.521.326-.786l1.404.529c.554-1.471.871-3.034.925-4.631l-1.499-.05c.004-.142.007-.283.007-.425l-12.524 14.494zm0 0-.051-1.5a11.947 11.947 0 0 1-1.061-.008l-.074 1.499a14.503 14.503 0 0 1-6.743-2.045l.771-1.287a13.194 13.194 0 0 1-1.061-.708l-.893 1.205a14.504 14.504 0 0 1-4.471-5.447l1.356-.641a13.03 13.03 0 0 1-.489-1.179l-1.412.506a14.502 14.502 0 0 1-.691-7.013l1.484.22a13.04 13.04 0 0 1 .248-1.251l-1.455-.365a14.493 14.493 0 0 1 3.321-6.214l1.112 1.007c.142-.158.289-.312.44-.462.15-.151.304-.298.462-.44l-1.008-1.112a14.497 14.497 0 0 1 6.214-3.322l.365 1.455a13.052 13.052 0 0 1 1.251-.249l-.22-1.484a14.504 14.504 0 0 1 7.013.69l-.506 1.413a13.054 13.054 0 0 1 1.179.488l.641-1.356a14.499 14.499 0 0 1 5.448 4.469l-1.205.894a13.605 13.605 0 0 1 .709 1.061l1.287-.771a14.496 14.496 0 0 1 2.045 6.742m-14.006 15.205 14.006-15.205m0 0-1.498.074c.011.212.016.424.016.636l1.482-.71z" stroke="#2C3040" stroke-width="3" stroke-dasharray="1 5"/>
    <circle cx="109" cy="126" r="7" fill="#454C5E"/>
</svg>
